# xmcd CD database file
#
# Track frame offsets:
#	150
#	22405
#	43617
#	68827
#	94537
#	114765
#	132690
#	154230
#	177980
#	196590
#
# Disc length: 2904 seconds
#
# Revision: 0
# Processed by: cddbd v1.5PL3 Copyright (c) Steve Scherf et al.
# Submitted via: CDex 1.40Release
#
DISCID=840b560a
DTITLE=MOOMIN - In My Life
DYEAR=1998
DGENRE=Vocal
TTITLE0=Feel Alright!
TTITLE1=WINDY LADY(Summer Sunset Mix)
TTITLE2=MOONLIGHT DANCEHALL(A Night In Jamaica Mix)
TTITLE3=過ぎゆく時間の中で featuring PUSHIM
TTITLE4=TIME IS ON MY SIDE(T.I.E. Mix)
TTITLE5=歩いて行こう〜Looling For The Brand New Day〜(Kingston 10 Dub Mix)
TTITLE6=Don't Throw It All Away
TTITLE7=IN THE RAIN(Waterdrop Mix)
TTITLE8=GUIDANCE featuring CHOSEN LEE
TTITLE9=夏の終わり
EXTD=YEAR: 1998 ID3G: 28
EXTT0=
EXTT1=
EXTT2=
EXTT3=
EXTT4=
EXTT5=
EXTT6=
EXTT7=
EXTT8=
EXTT9=
PLAYORDER=
